<?xml version="1.0" encoding="UTF-8" standalone="no"?>
<svg
   width="80"
   height="80"
   viewBox="0 0 80 80"
   version="1.1"
   id="svg26"
   sodipodi:docname="conference_layout_grid_custom.svg"
   inkscape:version="1.1.2 (0a00cf5339, 2022-02-04)"
   xmlns:inkscape="http://www.inkscape.org/namespaces/inkscape"
   xmlns:sodipodi="http://sodipodi.sourceforge.net/DTD/sodipodi-0.dtd"
   xmlns="http://www.w3.org/2000/svg"
   xmlns:svg="http://www.w3.org/2000/svg">
  <sodipodi:namedview
     id="namedview28"
     pagecolor="#ffffff"
     bordercolor="#666666"
     borderopacity="1.0"
     inkscape:pageshadow="2"
     inkscape:pageopacity="0.0"
     inkscape:pagecheckerboard="0"
     showgrid="false"
     width="80px"
     inkscape:zoom="5.6283784"
     inkscape:cx="74"
     inkscape:cy="74.088835"
     inkscape:window-width="1920"
     inkscape:window-height="1163"
     inkscape:window-x="0"
     inkscape:window-y="0"
     inkscape:window-maximized="1"
     inkscape:current-layer="svg26" />
  <defs
     id="defs10">
    <rect
       id="nrceunfdkb"
       x="0"
       y="0"
       width="27"
       height="33"
       rx="5" />
    <rect
       id="xmkteln59d"
       x="0"
       y="0"
       width="27"
       height="33"
       rx="5" />
    <rect
       id="bdnudj63cf"
       x="0"
       y="0"
       width="27"
       height="33"
       rx="5" />
    <rect
       id="0qs35dlrmh"
       x="0"
       y="0"
       width="27"
       height="33"
       rx="5" />
    <path
       id="rdfobamz0a"
       d="M 0,0 H 27 V 33 H 0 Z" />
    <path
       id="4g0468k0zc"
       d="M 0,0 H 27 V 33 H 0 Z" />
    <path
       id="g1ydbc0vje"
       d="M 0,0 H 27 V 33 H 0 Z" />
    <path
       id="bcq9c9r9xg"
       d="M 0,0 H 27 V 33 H 0 Z" />
  </defs>
  <g
     fill="none"
     fill-rule="evenodd"
     id="g24"
     transform="matrix(0.59895046,0,0,0.70984408,-4.4527707,-12.683919)">
    <rect
       stroke="#000000"
       stroke-width="4"
       x="2"
       y="2"
       width="23"
       height="29"
       rx="5"
       transform="translate(76,39)"
       id="rect12" />
    <rect
       stroke="#000000"
       stroke-width="4"
       x="2"
       y="2"
       width="23"
       height="29"
       rx="5"
       transform="translate(45,39)"
       id="rect14" />
    <g
       id="g18">
      <rect
         stroke="#000000"
         stroke-width="4"
         x="2"
         y="2"
         width="23"
         height="29"
         rx="5"
         transform="translate(45,76)"
         id="rect16" />
    </g>
    <g
       id="g22">
      <rect
         stroke="#000000"
         stroke-width="4"
         x="2"
         y="2"
         width="23"
         height="29"
         rx="5"
         transform="translate(76,76)"
         id="rect20" />
    </g>
  </g>
</svg>
